# xmcd
#
# Track frame offsets: 
#        150
#        10410
#        21482
#        34607
#        45285
#        54442
#        74315
#        83659
#        97357
#        116222
#        129590
#        142646
#
# Disc length: 2019 seconds
#
# Revision: 0
# Processed by: cddbd v1.5.2PL0 Copyright (c) Steve Scherf et al.
# Submitted via: ExactAudioCopy v0.99pb5
#
DISCID=9d07e10c
DTITLE=T.J. Casey - Blue Montana Skies
DYEAR=2002
DGENRE=Country
TTITLE0=(My Only) Turtle Dove
TTITLE1=Golden Memories
TTITLE2=Call of the Wind
TTITLE3=Blue Montana Skies
TTITLE4=Cowboys Lullaby
TTITLE5=Trickling Water
TTITLE6=Sleepin' Out Under The Stars
TTITLE7=In America
TTITLE8=Cowboy's Paradise
TTITLE9=He's Ridden
TTITLE10=It's Sure Lonely On This Old Highway
TTITLE11=I'm Not Convinced
EXTD=
EXTT0=
EXTT1=
EXTT2=
EXTT3=
EXTT4=
EXTT5=
EXTT6=
EXTT7=
EXTT8=
EXTT9=
EXTT10=
EXTT11=
PLAYORDER=
